<svg xmlns="http://www.w3.org/2000/svg" xmlns:xlink="http://www.w3.org/1999/xlink" width="400" zoomAndPan="magnify" viewBox="0 0 300 374.999991" height="500" preserveAspectRatio="xMidYMid meet" version="1.0"><defs><clipPath id="5b6b6ae4ad"><path d="M 20.667969 305.382812 L 279.910156 305.382812 L 279.910156 374.996094 L 20.667969 374.996094 Z M 20.667969 305.382812 " clip-rule="nonzero"/></clipPath><clipPath id="6f29fcecf9"><path d="M 156.257812 306.871094 L 278.957031 371.835938 C 279.636719 372.199219 279.984375 372.976562 279.796875 373.722656 C 279.613281 374.472656 278.941406 374.996094 278.171875 374.996094 L 22.414062 374.996094 C 21.644531 374.996094 20.972656 374.472656 20.789062 373.722656 C 20.601562 372.976562 20.949219 372.199219 21.628906 371.835938 L 144.328125 306.871094 C 148.058594 304.894531 152.527344 304.894531 156.257812 306.871094 Z M 156.257812 306.871094 " clip-rule="nonzero"/></clipPath><clipPath id="a9e625e44e"><path d="M 0.667969 0.382812 L 259.910156 0.382812 L 259.910156 69.996094 L 0.667969 69.996094 Z M 0.667969 0.382812 " clip-rule="nonzero"/></clipPath><clipPath id="1c4ff81681"><path d="M 136.257812 1.871094 L 258.957031 66.835938 C 259.636719 67.199219 259.984375 67.976562 259.796875 68.722656 C 259.613281 69.472656 258.941406 69.996094 258.171875 69.996094 L 2.414062 69.996094 C 1.644531 69.996094 0.972656 69.472656 0.789062 68.722656 C 0.601562 67.976562 0.949219 67.199219 1.628906 66.835938 L 124.328125 1.871094 C 128.058594 -0.105469 132.527344 -0.105469 136.257812 1.871094 Z M 136.257812 1.871094 " clip-rule="nonzero"/></clipPath><clipPath id="9890b102f3"><rect x="0" width="260" y="0" height="70"/></clipPath><clipPath id="e2222d3993"><path d="M 125.226562 97.601562 L 175.386719 97.601562 L 175.386719 326.253906 L 125.226562 326.253906 Z M 125.226562 97.601562 " clip-rule="nonzero"/></clipPath><clipPath id="a346c64446"><path d="M 131.976562 97.601562 L 168.636719 97.601562 C 172.363281 97.601562 175.386719 100.625 175.386719 104.351562 L 175.386719 319.4375 C 175.386719 323.164062 172.363281 326.1875 168.636719 326.1875 L 131.976562 326.1875 C 128.25 326.1875 125.226562 323.164062 125.226562 319.4375 L 125.226562 104.351562 C 125.226562 100.625 128.25 97.601562 131.976562 97.601562 Z M 131.976562 97.601562 " clip-rule="nonzero"/></clipPath><clipPath id="f077651731"><path d="M 0.226562 0.601562 L 50.386719 0.601562 L 50.386719 229.253906 L 0.226562 229.253906 Z M 0.226562 0.601562 " clip-rule="nonzero"/></clipPath><clipPath id="20dbeb9243"><path d="M 6.976562 0.601562 L 43.636719 0.601562 C 47.363281 0.601562 50.386719 3.625 50.386719 7.351562 L 50.386719 222.4375 C 50.386719 226.164062 47.363281 229.1875 43.636719 229.1875 L 6.976562 229.1875 C 3.25 229.1875 0.226562 226.164062 0.226562 222.4375 L 0.226562 7.351562 C 0.226562 3.625 3.25 0.601562 6.976562 0.601562 Z M 6.976562 0.601562 " clip-rule="nonzero"/></clipPath><clipPath id="2785175098"><rect x="0" width="51" y="0" height="230"/></clipPath><clipPath id="693de76a37"><path d="M 0 0 L 300 0 L 300 172.621094 L 0 172.621094 Z M 0 0 " clip-rule="nonzero"/></clipPath><clipPath id="18c7e73a10"><path d="M 200.355469 163.941406 C 184.992188 169.183594 167.421875 172.621094 150.226562 172.621094 C 133.03125 172.621094 116.480469 169.675781 101.234375 164.433594 C 100.90625 164.269531 100.582031 164.269531 100.257812 164.105469 C 42.992188 143.140625 0.8125 87.78125 0 23.089844 L 0 -197.363281 L 300.613281 -197.363281 L 300.613281 22.925781 C 299.804688 88.109375 258.273438 143.46875 200.355469 163.941406 Z M 200.355469 163.941406 " clip-rule="nonzero"/></clipPath><clipPath id="256fb8adf4"><path d="M 0 0 L 300 0 L 300 172.621094 L 0 172.621094 Z M 0 0 " clip-rule="nonzero"/></clipPath><clipPath id="66db40fa07"><path d="M 200.355469 163.941406 C 184.992188 169.183594 167.421875 172.621094 150.226562 172.621094 C 133.03125 172.621094 116.480469 169.675781 101.234375 164.433594 C 100.90625 164.269531 100.582031 164.269531 100.257812 164.105469 C 42.992188 143.140625 0.8125 87.78125 0 23.089844 L 0 -197.363281 L 300.613281 -197.363281 L 300.613281 22.925781 C 299.804688 88.109375 258.273438 143.46875 200.355469 163.941406 Z M 200.355469 163.941406 " clip-rule="nonzero"/></clipPath><clipPath id="dbda5bf441"><rect x="0" width="300" y="0" height="173"/></clipPath><clipPath id="ae3e6a6bf9"><rect x="0" width="300" y="0" height="375"/></clipPath></defs><g transform="matrix(1, 0, 0, 1, 0, 0)"><g clip-path="url(#ae3e6a6bf9)"><g clip-path="url(#5b6b6ae4ad)"><g clip-path="url(#6f29fcecf9)"><g transform="matrix(1, 0, 0, 1, 20, 305)"><g clip-path="url(#9890b102f3)"><g clip-path="url(#a9e625e44e)"><g clip-path="url(#1c4ff81681)"><path fill="#310101" d="M 264.921875 69.996094 L -4.34375 69.996094 L -4.34375 -1.289062 L 264.921875 -1.289062 Z M 264.921875 69.996094 " fill-opacity="1" fill-rule="nonzero"/></g></g></g></g></g></g><g clip-path="url(#e2222d3993)"><g clip-path="url(#a346c64446)"><g transform="matrix(1, 0, 0, 1, 125, 97)"><g clip-path="url(#2785175098)"><g clip-path="url(#f077651731)"><g clip-path="url(#20dbeb9243)"><path fill="#310101" d="M 0.226562 0.601562 L 50.386719 0.601562 L 50.386719 229.253906 L 0.226562 229.253906 Z M 0.226562 0.601562 " fill-opacity="1" fill-rule="nonzero"/></g></g></g></g></g></g><g clip-path="url(#693de76a37)"><g clip-path="url(#18c7e73a10)"><g transform="matrix(1, 0, 0, 1, 0, 0)"><g clip-path="url(#dbda5bf441)"><g clip-path="url(#256fb8adf4)"><g clip-path="url(#66db40fa07)"><path fill="#310101" d="M 300.613281 172.621094 L 0 172.621094 L 0 -197.273438 L 300.613281 -197.273438 Z M 300.613281 172.621094 " fill-opacity="1" fill-rule="nonzero"/></g></g></g></g></g></g></g></g></svg>